# xmcd
#
# Track frame offsets:
#	150
#	18518
#	40609
#	74899
#	87968
#	102054
#	113636
#	127816
#	145652
#	180812
#
# Disc length: 2653 seconds
#
# Revision: 0
# Processed by: cddbd v1.5.2PL0 Copyright (c) Steve Scherf et al.
# Submitted via: EZCDAudioConverter 1.3.4.1
#
DISCID=760a5b0a
DTITLE=That's Why - best of That's Why
DYEAR=1900
DGENRE=
TTITLE0=Children Of The Future Age
TTITLE1=Vem Kan Sagla
TTITLE2=Tiden
TTITLE3=Mattheus 25
TTITLE4=Den Oppstadne
TTITLE5=Dyp Av Nade
TTITLE6=Udoyeleg
TTITLE7=Stedfortrederen - Gud Skylden Er Var Alene
TTITLE8=Noe Annet
TTITLE9=Kristus Du Gjor Allting Nytt
EXTD=
EXTT0=
EXTT1=
EXTT2=
EXTT3=
EXTT4=
EXTT5=
EXTT6=
EXTT7=
EXTT8=
EXTT9=
PLAYORDER=
